<svg width="224" height="91" viewBox="0 0 224 91" fill="none" xmlns="http://www.w3.org/2000/svg">
<path d="M103.524 5.80448L120.149 35.0001L114.793 35.0001L110.33 26.8923L91.6597 26.8923L87.3082 35.0001L81.9154 35.0001L98.3914 5.80448L103.524 5.80448ZM93.8168 22.8384L108.098 22.8384L100.883 9.70963L93.8168 22.8384ZM137.051 26.0741L146.125 35.0001L140.212 35.0001L133.852 28.7147L127.455 35.0001L121.504 35.0001L130.616 26.26L121.579 17.0736L127.529 17.0736L133.778 23.7682L139.989 17.0736L146.088 17.0736L137.051 26.0741ZM148.664 17.0364L153.202 17.0364L153.202 35.0373L148.664 35.0373L148.664 17.0364ZM151.082 9.93278C149.669 9.93278 148.516 8.77983 148.516 7.36654C148.516 5.95325 149.669 4.8003 151.082 4.8003C152.495 4.8003 153.648 5.95325 153.648 7.36654C153.648 8.77983 152.495 9.93278 151.082 9.93278ZM180.406 22.578C180.592 23.0987 180.852 24.4376 180.852 25.665L180.852 35.0001L176.315 35.0001L176.352 30.6859C176.352 30.6859 175.236 32.5455 173.079 33.9587C169.136 36.5622 162.033 36.1531 158.872 34.2563C156.454 32.7686 155.933 29.9048 157.049 27.7105C157.83 26.1485 159.764 24.9955 162.628 24.698C167.091 24.1773 171.777 24.512 176.24 24.698C176.24 24.698 176.24 23.9913 176.129 23.6566C175.905 23.1731 175.645 22.5036 174.79 21.7226C174.232 21.2391 173.228 20.4953 170.959 20.049C169.397 19.7514 165.789 19.6399 163.669 21.1275C162.777 21.7598 162.777 22.578 162.739 22.8012C161.103 22.8012 159.429 22.8384 157.756 22.8384C157.756 22.8384 157.495 20.9416 159.653 19.1936C161.624 17.6315 163.892 17.1852 165.603 16.9249C166.57 16.7761 170.885 16.367 174.306 17.334C176.054 17.8547 176.947 18.4497 177.282 18.6357C177.839 19.0448 179.662 20.3093 180.406 22.578ZM168.951 32.3595C172.893 31.7272 175.868 29.6817 176.24 27.6733C173.079 27.4874 169.843 27.4874 166.645 27.5617C163.223 27.6361 161.252 28.0824 161.177 29.9792C161.029 32.657 165.566 32.9174 168.951 32.3595Z" fill="#331D05"/>
<path d="M103.524 42.3484L120.149 71.5441L114.793 71.5441L110.33 63.4362L91.6597 63.4362L87.3082 71.5441L81.9154 71.5441L98.3914 42.3484L103.524 42.3484ZM93.8168 59.3823L108.098 59.3823L100.883 46.2536L93.8168 59.3823ZM140.398 47.8156L135.749 47.7784C135.749 47.7784 136.232 43.8733 133.183 43.9477C130.021 44.0593 129.798 48.3735 129.947 52.4646C129.947 53.32 129.947 51.7952 129.947 53.6176L137.423 53.6176L137.423 57.2624L129.947 57.2624C129.947 61.4279 129.947 69.8332 129.947 71.5441L125.298 71.5441L125.298 57.2624L122.025 57.2624L122.025 53.6176L125.298 53.6176L125.298 51.6092C125.298 49.4521 125.335 47.8156 126.079 45.8817C127.046 43.3526 128.906 41.4558 131.881 40.9723C135.786 40.3773 139.505 41.6418 140.212 45.3982C140.435 46.6999 140.398 47.8156 140.398 47.8156ZM149.812 54.5846C152.416 52.5762 159.036 52.9853 159.631 57.7831C159.743 58.7872 159.631 59.6799 159.631 59.6799L154.945 59.6427C154.945 59.6427 155.354 57.002 152.49 56.8533C148.92 56.7045 147.097 61.5394 147.172 65.0355C147.172 65.0355 147.135 68.8291 147.135 71.5813C145.721 71.5813 143.973 71.5813 142.523 71.5813C142.523 65.5934 142.56 59.6055 142.523 53.6548L146.949 53.6548C146.949 55.44 146.986 57.3368 146.986 59.122C146.986 59.122 147.581 56.2954 149.812 54.5846ZM162.43 53.5804L166.967 53.5804L166.967 71.5813L162.43 71.5813L162.43 53.5804ZM164.847 46.4767C163.434 46.4767 162.281 45.3238 162.281 43.9105C162.281 42.4972 163.434 41.3442 164.847 41.3442C166.261 41.3442 167.413 42.4972 167.413 43.9105C167.413 45.3238 166.261 46.4767 164.847 46.4767ZM190.377 64.6264L195.696 64.6264C195.621 64.9611 195.51 65.4074 195.324 65.7793C193.502 69.3869 188.704 71.9904 183.051 71.9904C175.873 71.9904 170.033 67.8249 170.033 62.6552C170.033 57.5227 175.873 53.3572 183.051 53.3572C188.741 53.3572 193.762 55.9235 195.398 59.5683C195.584 60.0146 195.696 60.4981 195.733 60.87L190.563 60.87C190.489 60.4981 190.34 60.0146 190.08 59.6055C188.815 57.6715 186.026 56.4813 183.013 56.4813C178.588 56.4813 175.017 59.1964 175.017 62.5436C175.017 65.8909 178.588 68.6059 183.013 68.6059C186.212 68.6059 188.369 67.4158 189.671 65.8537C190.043 65.4074 190.266 64.9611 190.377 64.6264ZM221.556 59.122C221.742 59.6427 222.003 60.9816 222.003 62.2089L222.003 71.5441L217.465 71.5441L217.503 67.2298C217.503 67.2298 216.387 69.0894 214.23 70.5027C210.287 73.1061 203.184 72.697 200.022 70.8002C197.605 69.3126 197.084 66.4488 198.2 64.2545C198.981 62.6924 200.915 61.5394 203.779 61.2419C208.242 60.7212 212.928 61.056 217.391 61.2419C217.391 61.2419 217.391 60.5353 217.279 60.2005C217.056 59.717 216.796 59.0476 215.94 58.2666C215.383 57.7831 214.378 57.0392 212.11 56.5929C210.548 56.2954 206.94 56.1838 204.82 57.6715C203.927 58.3038 203.927 59.122 203.89 59.3451C202.254 59.3451 200.58 59.3823 198.907 59.3823C198.907 59.3823 198.646 57.4855 200.803 55.7375C202.775 54.1755 205.043 53.7291 206.754 53.4688C207.721 53.32 212.035 52.9109 215.457 53.8779C217.205 54.3986 218.098 54.9937 218.432 55.1796C218.99 55.5887 220.813 56.8533 221.556 59.122ZM210.101 68.9034C214.044 68.2712 217.019 66.2256 217.391 64.2173C214.23 64.0313 210.994 64.0313 207.795 64.1057C204.374 64.1801 202.403 64.6264 202.328 66.5232C202.179 69.201 206.717 69.4613 210.101 68.9034Z" fill="#331D05"/>
<path d="M36.82 8.86447L42.1509 10.2592L46.7069 11.4369L46.7999 11.4369L49.0004 15.9309L51.4488 20.9518L53.6494 25.4458L68.9601 56.687L70.5717 59.9723L62.3585 61.6459L64.683 65.799L65.2719 66.8218C72.1524 59.9103 76.4294 50.3644 76.4294 39.8267C76.4294 18.7203 59.3211 1.61206 38.2147 1.61206C17.1083 1.61206 -9.39055e-08 18.7203 -2.09756e-07 39.8267C-2.4378e-07 46.0253 1.48768 51.8831 4.12211 57.0589L36.82 8.86447Z" fill="#331D05"/>
<path d="M43.0545 27.2755L45.8129 32.1724L48.3543 36.6974L60.3797 58.0828L65.9585 57.184L51.7326 29.1041L49.4391 24.5791L46.8977 19.5582L44.5732 14.9712L39.8002 22.6885L34.5003 31.2116L12.867 65.955L11.8752 67.5357C13.146 68.7444 14.5097 69.8912 15.9354 70.9139L17.485 70.604L21.0183 64.6223L38.0336 35.8296L43.0545 27.3065L43.0545 27.2755Z" fill="#331D05"/>
<path d="M57.1229 67.6298L35.8615 72.8676H35.6756L28.2372 74.7272L31.8944 67.7847L34.8078 62.2989L52.226 59.4476L43.7958 45.3766L41.0064 40.7277L28.1752 63.4147L24.8899 69.2414L21.9766 74.4173C26.9355 76.7418 32.4523 78.0745 38.279 78.0745C46.1513 78.0745 53.4657 75.688 59.5404 71.6279L57.1849 67.6918L57.1229 67.6298Z" fill="#331D05"/>
</svg>
